<svg version="1.1" id="Layer_1" xmlns="http://www.w3.org/2000/svg" xmlns:xlink="http://www.w3.org/1999/xlink" x="0px" y="0px"
	 width="100%" viewBox="0 0 592 592" enable-background="new 0 0 592 592" xml:space="preserve">
<path fill="#000000" opacity="1.000000" stroke="none" 
	d="
M418.357666,91.000183 
	C418.357727,206.777847 418.357727,322.055511 418.357727,437.137848 
	C415.828308,438.168793 414.192688,437.103394 412.533173,436.505646 
	C379.951019,424.768951 347.405334,412.930054 314.770966,401.340698 
	C310.711761,399.899170 309.574554,397.789551 309.579559,393.701752 
	C309.675598,315.046783 309.669678,236.391632 309.562408,157.736679 
	C309.557098,153.837006 310.809662,151.296127 313.823364,148.880554 
	C346.455109,122.725166 378.983276,96.440559 411.571198,70.230408 
	C413.342529,68.805748 414.867706,66.921494 418.357605,66.159203 
	C418.357605,74.449028 418.357605,82.474602 418.357666,91.000183 
z"/>
<path fill="#000000" opacity="1.000000" stroke="none" 
	d="
M292.351746,335.000061 
	C292.346985,354.993042 292.241974,374.486938 292.420166,393.978210 
	C292.456482,397.950653 291.170807,399.928589 287.393372,401.274689 
	C254.777008,412.897430 222.225037,424.700836 189.647202,436.431824 
	C187.961792,437.038727 186.315536,438.040955 184.002884,437.280823 
	C184.002884,313.836548 184.002884,190.296631 184.002884,66.777603 
	C185.922241,65.985008 186.892242,67.385201 187.990738,68.269279 
	C221.602310,95.320305 255.165863,122.431221 288.857758,149.381729 
	C291.926788,151.836655 292.392212,154.599350 292.389435,158.063751 
	C292.342377,216.875824 292.353363,275.687958 292.351746,335.000061 
z"/>
<path fill="#000000" opacity="1.000000" stroke="none" 
	d="
M223.033661,473.191162 
	C223.022156,477.162048 222.930359,480.661194 223.020874,484.155640 
	C223.139465,488.734589 222.149292,492.772583 217.224533,495.847931 
	C223.699051,499.129120 223.115173,504.766602 223.041931,510.259766 
	C222.981995,514.755371 223.149872,519.257629 222.971481,523.747253 
	C222.637787,532.145874 218.620224,536.468201 210.361282,536.813965 
	C202.880676,537.127197 195.376999,536.863892 187.883896,536.915222 
	C184.695480,536.937073 183.581375,535.462524 183.592438,532.305542 
	C183.674133,508.991486 183.700180,485.676605 183.563675,462.363037 
	C183.540970,458.485291 185.136948,457.529144 188.640091,457.626007 
	C195.129745,457.805511 201.628067,457.667267 208.122772,457.670593 
	C219.285995,457.676300 222.859558,461.285492 223.033661,473.191162 
M199.630112,523.545654 
	C204.405090,525.622314 206.646057,524.947693 206.869598,520.966248 
	C207.149109,515.987732 206.991516,510.977692 206.857971,505.985657 
	C206.785248,503.267181 204.937073,502.395569 202.437775,502.341736 
	C199.598541,502.280518 199.203842,504.040619 199.229095,506.269073 
	C199.291306,511.763123 199.322479,517.257568 199.630112,523.545654 
M199.223190,486.120636 
	C199.258881,488.297424 199.004364,490.624115 202.312714,490.606842 
	C204.489029,490.595490 206.603302,490.184021 206.721786,487.675842 
	C206.963470,482.559967 206.972015,477.420807 206.782944,472.302094 
	C206.689240,469.766022 204.623962,469.340454 202.424026,469.357544 
	C200.059357,469.375885 199.204407,470.604218 199.215698,472.787781 
	C199.237122,476.927307 199.220825,481.067017 199.223190,486.120636 
z"/>
<path fill="#000000" opacity="1.000000" stroke="none" 
	d="
M394.945251,519.817261 
	C394.794891,523.288269 395.886627,524.913025 399.258514,524.832581 
	C402.707916,524.750244 402.507751,522.558289 402.856293,520.121155 
	C404.066284,511.660156 401.853668,505.231598 393.371796,501.733551 
	C390.956848,500.737610 388.926422,498.825226 386.687836,497.382446 
	C382.353607,494.589020 379.814575,490.662384 379.306427,485.531006 
	C378.731262,479.722778 378.594330,473.869720 379.268555,468.087524 
	C380.052582,461.363556 384.321075,457.795197 391.079956,457.694244 
	C396.240112,457.617188 401.403687,457.601105 406.563263,457.694733 
	C414.201782,457.833282 418.232147,461.910828 418.338867,469.449493 
	C418.360077,470.947662 418.492950,472.464478 418.313568,473.941010 
	C417.947327,476.955994 419.951599,481.123718 416.876160,482.731873 
	C413.438751,484.529236 409.044525,483.487823 405.074646,483.171417 
	C403.175537,483.020081 402.877747,481.388367 402.845459,479.814819 
	C402.801025,477.651398 402.778351,475.486115 402.813782,473.322754 
	C402.856903,470.691803 401.816193,469.336945 398.981445,469.327271 
	C396.253937,469.317932 395.186646,470.421600 394.949799,473.140656 
	C394.353516,479.986328 395.599243,485.066101 402.280609,489.367706 
	C419.975830,500.760254 418.397797,498.922455 418.347656,519.945007 
	C418.343292,521.776428 418.387756,523.609070 418.336212,525.439026 
	C418.163788,531.561157 414.909790,535.503845 408.876556,536.404114 
	C402.431183,537.365906 395.907776,537.273499 389.455780,536.541016 
	C383.816864,535.900879 380.509521,532.527832 379.468628,526.944458 
	C379.105804,524.998352 379.014069,522.977173 379.019287,520.990906 
	C379.050293,509.175690 378.406067,511.011200 389.129669,510.648376 
	C393.499969,510.500519 395.313019,512.098328 394.954437,516.373596 
	C394.871246,517.365723 394.939636,518.370544 394.945251,519.817261 
z"/>
<path fill="#000000" opacity="1.000000" stroke="none" 
	d="
M309.049561,503.000000 
	C309.049255,512.649231 308.931458,521.800598 309.101257,530.946655 
	C309.177948,535.077820 307.872314,536.942444 303.421936,536.983276 
	C293.014526,537.078613 293.008484,537.254700 293.006714,526.802307 
	C293.004028,510.666412 292.942108,494.529999 293.069977,478.395081 
	C293.099670,474.647491 291.950714,472.489227 287.965576,473.117340 
	C281.960693,474.063782 279.414032,471.075714 278.860016,465.580963 
	C278.616486,463.165283 276.961823,460.904510 278.148102,458.004150 
	C293.281586,458.004150 308.503113,458.004150 324.206238,458.004150 
	C324.551910,462.883789 323.001923,467.246613 321.244965,471.406403 
	C320.132294,474.040802 317.106842,473.151794 314.929413,472.998077 
	C310.355286,472.675232 308.766083,474.473145 308.946228,479.047943 
	C309.253662,486.854553 309.042633,494.681549 309.049561,503.000000 
z"/>
</svg>